<svg xmlns="http://www.w3.org/2000/svg" viewBox="0 0 240.1 30.66"><defs><style>.cls-1{fill:#4884c2;}.cls-1,.cls-2,.cls-3{fill-rule:evenodd;}.cls-2{fill:#f68b21;}.cls-4{fill:#0c9347;}.cls-5{fill:#03843a;}</style></defs><g id="Layer_2" data-name="Layer 2"><g id="Layer_1-2" data-name="Layer 1"><path id="_" data-name=" " class="cls-1" d="M210.75,30.41a.8.8,0,0,0,.82-.8v0a.83.83,0,1,0-1.65,0,.8.8,0,0,0,.79.84Zm3.29,0c1.38,0,2.17-.61,2.17-1.46,0-1.82-2.79-1.06-2.79-1.84,0-.24.26-.43.86-.43a2.61,2.61,0,0,1,1.33.34l.44-.94a3.73,3.73,0,0,0-1.77-.41c-1.35,0-2.14.61-2.14,1.49,0,1.83,2.78,1.07,2.78,1.82,0,.25-.22.42-.85.42a3.13,3.13,0,0,1-1.6-.44l-.44,1A4,4,0,0,0,214,30.41Zm5.61-1.24a1,1,0,0,1-.55.17.53.53,0,0,1-.57-.61V26.86h1.15v-1h-1.15V24.72H217.2v1.12h-.71v1h.71v1.9a1.51,1.51,0,0,0,1.71,1.65,2,2,0,0,0,1.1-.28Zm3.15,1.24A2.38,2.38,0,1,0,220.27,28,2.36,2.36,0,0,0,222.8,30.41Zm0-1.09a1.28,1.28,0,0,1,0-2.55A1.17,1.17,0,0,1,224,28.05a1.16,1.16,0,0,1-1.18,1.27Zm4.7-3v-.61h-1.27v4.61h1.33V28.17a1.14,1.14,0,0,1,1.23-1.29h.3V25.66a1.91,1.91,0,0,0-1.59.68Zm6.86,1.72a2.29,2.29,0,0,0-2.4-2.39,2.35,2.35,0,0,0-2.47,2.38A2.69,2.69,0,0,0,234,29.68l-.71-.77a1.51,1.51,0,0,1-1.15.44,1.22,1.22,0,0,1-1.32-.92h3.48a1.73,1.73,0,0,0,0-.37ZM232,26.68a1.09,1.09,0,0,1,1.13,1h-2.27A1.08,1.08,0,0,1,232,26.68Z"/><path id="_food" data-name=" food" class="cls-2" d="M128.07,9.18c0-2,1-3,2.74-3a4.12,4.12,0,0,1,2.43.74l1.58-4.36a8.5,8.5,0,0,0-4.58-1.12c-5.17,0-8,3.05-8,7.71v.93H119v4.62h3.2V30.34h6V14.69h5.16V10.07h-5.32V9.18ZM146,30.65c6.6,0,11.38-4.43,11.38-10.68S152.59,9.3,146,9.3,134.58,13.73,134.58,20,139.4,30.65,146,30.65Zm0-4.93c-3,0-5.32-2.17-5.32-5.75S143,14.23,146,14.23s5.29,2.17,5.29,5.74S149,25.72,146,25.72Zm25.26,4.93c6.6,0,11.38-4.43,11.38-10.68S177.85,9.3,171.25,9.3,159.84,13.73,159.84,20,164.66,30.65,171.25,30.65Zm0-4.93c-3,0-5.32-2.17-5.32-5.75s2.32-5.74,5.32-5.74,5.29,2.17,5.29,5.74-2.28,5.75-5.29,5.75Zm30.5-24V11.79a8,8,0,0,0-6.21-2.51c-5.86,0-10.37,4.17-10.37,10.68s4.52,10.68,10.37,10.68a8,8,0,0,0,6.47-2.7v2.39h5.74V1.73Zm-5.17,24c-3,0-5.32-2.17-5.32-5.75s2.32-5.74,5.32-5.74,5.29,2.17,5.29,5.74-2.32,5.75-5.29,5.75Z"/><path id="direct" class="cls-1" d="M16.58,1.73V11.79a8,8,0,0,0-6.21-2.51C4.5,9.28,0,13.45,0,20S4.52,30.64,10.38,30.64a8,8,0,0,0,6.47-2.7v2.39h5.74V1.73Zm-5.17,24c-3,0-5.32-2.17-5.32-5.75s2.32-5.74,5.32-5.74S16.7,16.4,16.7,20,14.38,25.72,11.41,25.72Zm19.73-19a3.45,3.45,0,0,0,3.74-3.47c0-1.85-1.5-3.24-3.74-3.24a3.43,3.43,0,0,0-3.73,3.35A3.44,3.44,0,0,0,31.14,6.71Zm-3,23.63h6V9.6h-6V30.34Zm17.35-18V9.6H39.74V30.34h6V20.55c0-4,2.2-5.79,5.51-5.79.47,0,.86,0,1.35.07V9.28C49.43,9.3,47,10.33,45.49,12.34Zm30.84,7.71c0-6.67-4.71-10.77-10.8-10.77-6.32,0-11.06,4.47-11.06,10.68S59.13,30.64,66.3,30.64c3.74,0,6.63-1.15,8.56-3.35l-3.19-3.47a7.06,7.06,0,0,1-5.2,2c-3.16,0-5.36-1.58-5.93-4.16H76.22c0-.5.11-1.15.11-1.61ZM65.58,13.84a4.93,4.93,0,0,1,5.09,4.32H60.45a4.9,4.9,0,0,1,5.13-4.32ZM90.37,30.65c4.36,0,7.78-1.92,9.3-5.25L95,22.86a5.12,5.12,0,0,1-4.66,2.86c-3,0-5.44-2.13-5.44-5.75s2.39-5.74,5.44-5.74A5.18,5.18,0,0,1,95,17.09l4.66-2.51c-1.5-3.39-4.94-5.28-9.3-5.28C83.62,9.3,78.8,13.73,78.8,20S83.62,30.65,90.37,30.65ZM115.2,25.1a4,4,0,0,1-2.43.77,2.42,2.42,0,0,1-2.58-2.74V14.69h5.16V10.07h-5.16V5h-6v5.06H101V14.7h3.19v8.52c0,4.93,2.86,7.44,7.75,7.44a8.6,8.6,0,0,0,4.9-1.31Z"/><path id="TM" class="cls-3" d="M235.2,25.85h.52V23.48h.92V23h-2.38v.44h.93v2.37Zm4.9,0v-2.8h-.43l-1.1,1.86-1.11-1.86H237v2.8h.49V24l.92,1.51h.23L239.6,24v1.86Z"/><g id="Group_65" data-name="Group 65"><g id="Group_64" data-name="Group 64"><path id="Path_28" data-name="Path 28" class="cls-4" d="M3.19,1.74s.87,3.35,2.29,4.82A5.65,5.65,0,0,0,8.61,8.2,4.56,4.56,0,0,1,9,8.8a1.25,1.25,0,0,1,.14.48h.39c0-.21.09-.43.15-.64A3.77,3.77,0,0,1,10,8.07a2.59,2.59,0,0,0,2.27,0c1.31-.58,1.56-1.62,2.86-2.21s1.56-.12,1.56-.12a2.58,2.58,0,0,0-1.56-1.12,4.45,4.45,0,0,0-2.86.2A3.66,3.66,0,0,0,10.2,6.39a1.62,1.62,0,0,0-.3,1.33L9.39,8.94l-.54-.87A2.47,2.47,0,0,0,9,6.53,6,6,0,0,0,8.1,4.62,6.56,6.56,0,0,0,6.11,3a14.1,14.1,0,0,0-1.77-.69A8.37,8.37,0,0,1,3.19,1.74Z"/><path id="Path_29" data-name="Path 29" class="cls-5" d="M8.71,7.81a15.51,15.51,0,0,0-2-3A13.43,13.43,0,0,0,4.18,2.67L6,4.47l2.7,3.34"/><path id="Path_30" data-name="Path 30" class="cls-5" d="M15.3,5.07a5.74,5.74,0,0,0-2.72.68A11.1,11.1,0,0,0,10,8a3,3,0,0,1,1-1.41,6.36,6.36,0,0,1,2.48-1.49A3.82,3.82,0,0,1,15.3,5.07Z"/></g></g></g></g></svg>