<svg xmlns="http://www.w3.org/2000/svg" viewBox="0 0 160 20.43"><defs><style>.cls-1{fill:#4884c2;}.cls-1,.cls-2,.cls-3{fill-rule:evenodd;}.cls-2{fill:#f68b21;}.cls-4{fill:#0c9347;}.cls-5{fill:#03843a;}</style></defs><g id="Layer_2" data-name="Layer 2"><g id="Layer_1-2" data-name="Layer 1"><path id="_" data-name=" " class="cls-1" d="M140.44,20.27a.55.55,0,0,0,.55-.54v0a.56.56,0,0,0-.55-.56.55.55,0,0,0-.55.56.54.54,0,0,0,.52.56Zm2.19,0c.92,0,1.45-.41,1.45-1,0-1.21-1.86-.7-1.86-1.22,0-.17.17-.29.57-.29a1.74,1.74,0,0,1,.89.23l.3-.63a2.55,2.55,0,0,0-1.19-.28c-.9,0-1.42.41-1.42,1,0,1.22,1.85.71,1.85,1.21,0,.17-.15.28-.56.28a2.1,2.1,0,0,1-1.07-.29l-.3.64A2.78,2.78,0,0,0,142.63,20.27Zm3.74-.83a.64.64,0,0,1-.36.11.36.36,0,0,1-.39-.4V17.9h.77v-.68h-.77v-.75h-.88v.75h-.48v.68h.48v1.27a1,1,0,0,0,1.14,1.1,1.25,1.25,0,0,0,.73-.19Zm2.1.83a1.59,1.59,0,1,0-1.68-1.59A1.58,1.58,0,0,0,148.47,20.27Zm0-.73a.85.85,0,1,1,.79-.85.78.78,0,0,1-.79.85Zm3.13-2v-.41h-.84v3.08h.88V18.77a.76.76,0,0,1,.82-.86h.2V17.1a1.27,1.27,0,0,0-1.06.45Zm4.57,1.15a1.52,1.52,0,0,0-1.6-1.6,1.57,1.57,0,0,0-1.64,1.59,1.6,1.6,0,0,0,1.76,1.58,1.57,1.57,0,0,0,1.26-.49l-.47-.51a1,1,0,0,1-.77.29.83.83,0,0,1-.88-.61h2.32a1.14,1.14,0,0,0,0-.25Zm-1.59-.92a.72.72,0,0,1,.75.64h-1.51A.72.72,0,0,1,154.58,17.78Z"/><path id="_food" data-name=" food" class="cls-2" d="M85.35,6.12c0-1.37.64-2,1.82-2a2.81,2.81,0,0,1,1.62.49l1-2.9a5.59,5.59,0,0,0-3-.75c-3.44,0-5.35,2-5.35,5.14v.62H79.3V9.79h2.14V20.22h4V9.79h3.44V6.71H85.35V6.12ZM97.29,20.43c4.39,0,7.58-3,7.58-7.12S101.68,6.2,97.29,6.2s-7.61,3-7.61,7.11S92.89,20.43,97.29,20.43Zm0-3.29a3.51,3.51,0,0,1-3.55-3.83,3.55,3.55,0,1,1,7.07,0,3.49,3.49,0,0,1-3.52,3.83Zm16.83,3.29c4.4,0,7.58-3,7.58-7.12s-3.18-7.11-7.58-7.11-7.6,3-7.6,7.11S109.73,20.43,114.12,20.43Zm0-3.29a3.51,3.51,0,0,1-3.54-3.83,3.54,3.54,0,1,1,7.06,0,3.49,3.49,0,0,1-3.52,3.83Zm20.32-16V7.86a5.3,5.3,0,0,0-4.13-1.67,6.71,6.71,0,0,0-6.91,7.11,6.72,6.72,0,0,0,6.91,7.12,5.31,5.31,0,0,0,4.31-1.8v1.59h3.83V1.15Zm-3.44,16a3.51,3.51,0,0,1-3.54-3.83,3.54,3.54,0,1,1,7.06,0A3.5,3.5,0,0,1,131,17.14Z"/><path id="direct" class="cls-1" d="M11.05,1.15V7.86A5.32,5.32,0,0,0,6.91,6.19,6.71,6.71,0,0,0,0,13.3a6.73,6.73,0,0,0,6.92,7.12,5.31,5.31,0,0,0,4.31-1.8v1.59h3.83V1.15Zm-3.45,16a3.51,3.51,0,0,1-3.54-3.83,3.55,3.55,0,1,1,7.07,0A3.51,3.51,0,0,1,7.6,17.14ZM20.75,4.47a2.3,2.3,0,0,0,2.49-2.31A2.25,2.25,0,0,0,20.75,0a2.29,2.29,0,0,0-2.48,2.23A2.29,2.29,0,0,0,20.75,4.47Zm-2,15.75h4V6.4h-4V20.22Zm11.56-12V6.4H26.49V20.22h4V13.69c0-2.64,1.46-3.85,3.67-3.85.31,0,.57,0,.9,0V6.19A5.62,5.62,0,0,0,30.31,8.22Zm20.56,5.14a6.85,6.85,0,0,0-7.2-7.17A7,7,0,0,0,36.3,13.3c0,4.12,3.1,7.12,7.88,7.12a7.28,7.28,0,0,0,5.71-2.23l-2.13-2.32a4.68,4.68,0,0,1-3.47,1.34c-2.1,0-3.57-1.06-3.95-2.78H50.79c0-.33.08-.76.08-1.07ZM43.7,9.22a3.3,3.3,0,0,1,3.4,2.88H40.28A3.28,3.28,0,0,1,43.7,9.22ZM60.22,20.43c2.91,0,5.19-1.28,6.2-3.5l-3.11-1.7a3.39,3.39,0,0,1-3.1,1.91,3.54,3.54,0,0,1-3.63-3.83,3.54,3.54,0,0,1,3.63-3.83,3.45,3.45,0,0,1,3.1,1.91l3.11-1.67c-1-2.26-3.29-3.52-6.2-3.52-4.5,0-7.71,3-7.71,7.11S55.72,20.43,60.22,20.43Zm16.55-3.7a2.71,2.71,0,0,1-1.62.51,1.61,1.61,0,0,1-1.72-1.82V9.79h3.44V6.71H73.43V3.35h-4V6.72H67.29V9.8h2.13v5.67c0,3.29,1.9,5,5.16,5a5.78,5.78,0,0,0,3.27-.87Z"/><path id="TM" class="cls-3" d="M156.73,17.22h.35V15.65h.61v-.3h-1.58v.3h.62v1.57Zm3.27,0V15.36h-.29L159,16.6l-.74-1.24H158v1.86h.33V16l.62,1h.15l.61-1v1.24Z"/><g id="Group_65" data-name="Group 65"><g id="Group_64" data-name="Group 64"><path id="Path_28" data-name="Path 28" class="cls-4" d="M2.13,1.16A9.15,9.15,0,0,0,3.65,4.37a3.77,3.77,0,0,0,2.09,1.1,2.33,2.33,0,0,1,.27.4.75.75,0,0,1,.1.32h.25c0-.15.07-.29.11-.44a3.14,3.14,0,0,1,.18-.37,1.74,1.74,0,0,0,1.51,0C9,5,9.2,4.3,10.07,3.91s1-.08,1-.08a1.72,1.72,0,0,0-1-.75,3,3,0,0,0-1.91.13,2.45,2.45,0,0,0-1.36,1,1,1,0,0,0-.2.89L6.26,6,5.9,5.38a1.73,1.73,0,0,0,.11-1,4.16,4.16,0,0,0-.62-1.27A4.15,4.15,0,0,0,4.07,2a9.94,9.94,0,0,0-1.18-.46A5.51,5.51,0,0,1,2.13,1.16Z"/><path id="Path_29" data-name="Path 29" class="cls-5" d="M5.8,5.2a10.83,10.83,0,0,0-1.3-2A9.12,9.12,0,0,0,2.79,1.78L4,3,5.8,5.2"/><path id="Path_30" data-name="Path 30" class="cls-5" d="M10.2,3.38a3.83,3.83,0,0,0-1.82.45A7.32,7.32,0,0,0,6.67,5.31a2,2,0,0,1,.67-.95A4.22,4.22,0,0,1,9,3.37,2.6,2.6,0,0,1,10.2,3.38Z"/></g></g></g></g></svg>