<svg xmlns="http://www.w3.org/2000/svg" viewBox="0 0 180 22.99"><defs><style>.cls-1{fill:#4884c2;}.cls-1,.cls-2,.cls-3{fill-rule:evenodd;}.cls-2{fill:#f68b21;}.cls-4{fill:#0c9347;}.cls-5{fill:#03843a;}</style></defs><g id="Layer_2" data-name="Layer 2"><g id="Layer_1-2" data-name="Layer 1"><path id="_" data-name=" " class="cls-1" d="M158,22.8a.59.59,0,0,0,.62-.6v0a.62.62,0,0,0-.62-.62.62.62,0,0,0-.62.62.61.61,0,0,0,.6.63Zm2.47,0c1,0,1.63-.46,1.63-1.1,0-1.36-2.09-.79-2.09-1.38,0-.18.19-.32.64-.32a2,2,0,0,1,1,.26l.33-.71a2.84,2.84,0,0,0-1.33-.31c-1,0-1.6.46-1.6,1.12,0,1.38,2.09.8,2.09,1.37,0,.19-.17.31-.64.31a2.28,2.28,0,0,1-1.2-.33l-.33.72A3,3,0,0,0,160.46,22.8Zm4.21-.93a.76.76,0,0,1-.41.13.4.4,0,0,1-.43-.46V20.13h.86v-.76h-.86v-.84h-1v.84h-.53v.77h.53v1.43a1.14,1.14,0,0,0,1.29,1.24,1.45,1.45,0,0,0,.82-.22Zm2.36.93a1.79,1.79,0,1,0-1.9-1.78A1.77,1.77,0,0,0,167,22.8Zm0-.82a1,1,0,0,1,0-1.91A1,1,0,0,1,167,22Zm3.52-2.23v-.46h-1v3.46h1V21.12a.86.86,0,0,1,.92-1h.22v-.93a1.43,1.43,0,0,0-1.19.52ZM175.7,21a1.72,1.72,0,0,0-1.81-1.79A1.76,1.76,0,0,0,172.05,21a1.79,1.79,0,0,0,2,1.78,1.77,1.77,0,0,0,1.42-.56l-.53-.58a1.12,1.12,0,0,1-.86.34.93.93,0,0,1-1-.7h2.61a1.41,1.41,0,0,0,0-.28Zm-1.8-1a.82.82,0,0,1,.85.72h-1.7A.81.81,0,0,1,173.9,20Z"/><path id="_food" data-name=" food" class="cls-2" d="M96,6.88c0-1.53.72-2.25,2-2.25a3.1,3.1,0,0,1,1.82.55l1.19-3.27a6.38,6.38,0,0,0-3.44-.84c-3.88,0-6,2.29-6,5.78v.7h-2.4V11h2.4V22.75h4.51V11H100V7.55H96V6.88ZM109.45,23c4.94,0,8.53-3.32,8.53-8s-3.59-8-8.53-8-8.55,3.32-8.55,8S104.51,23,109.45,23Zm0-3.7c-2.25,0-4-1.62-4-4.31a4,4,0,0,1,4-4.3c2.25,0,4,1.62,4,4.3s-1.7,4.31-4,4.31ZM128.39,23c4.94,0,8.52-3.32,8.52-8s-3.58-8-8.52-8-8.56,3.32-8.56,8S123.44,23,128.39,23Zm0-3.7c-2.25,0-4-1.62-4-4.31a4,4,0,0,1,4-4.3c2.25,0,4,1.62,4,4.3s-1.71,4.31-4,4.31Zm22.86-18V8.84A6,6,0,0,0,146.59,7c-4.39,0-7.77,3.13-7.77,8s3.39,8,7.77,8a6,6,0,0,0,4.86-2v1.8h4.3V1.3Zm-3.87,18c-2.25,0-4-1.62-4-4.31a4,4,0,0,1,4-4.3c2.22,0,4,1.62,4,4.3s-1.74,4.31-4,4.31Z"/><path id="direct" class="cls-1" d="M12.43,1.3V8.84A6,6,0,0,0,7.77,7C3.38,7,0,10.09,0,15s3.39,8,7.78,8a6,6,0,0,0,4.85-2v1.8h4.31V1.3Zm-3.88,18c-2.25,0-4-1.62-4-4.31s1.73-4.3,4-4.3,4,1.62,4,4.3S10.78,19.28,8.55,19.28ZM23.35,5a2.59,2.59,0,0,0,2.8-2.6A2.53,2.53,0,0,0,23.35,0a2.57,2.57,0,0,0-2.8,2.51A2.57,2.57,0,0,0,23.35,5ZM21.1,22.75h4.51V7.19H21.1V22.75Zm13-13.5V7.19H29.8V22.75h4.51V15.41c0-3,1.64-4.34,4.13-4.34.35,0,.64,0,1,0V7C37.05,7,35.2,7.74,34.1,9.25ZM57.22,15A7.7,7.7,0,0,0,49.13,7a7.91,7.91,0,0,0-8.29,8c0,4.62,3.49,8,8.86,8a8.16,8.16,0,0,0,6.43-2.51l-2.4-2.6a5.31,5.31,0,0,1-3.9,1.5c-2.37,0-4-1.19-4.45-3.12H57.14c0-.37.08-.86.08-1.21Zm-8.06-4.66A3.7,3.7,0,0,1,53,13.61H45.32a3.68,3.68,0,0,1,3.84-3.24ZM67.75,23c3.27,0,5.83-1.44,7-3.94l-3.49-1.9a3.83,3.83,0,0,1-3.5,2.14A4,4,0,0,1,63.65,15a4,4,0,0,1,4.08-4.3,3.89,3.89,0,0,1,3.5,2.14l3.49-1.88c-1.13-2.54-3.7-4-7-4-5.06,0-8.67,3.32-8.67,8S62.69,23,67.75,23Zm18.61-4.16a3.06,3.06,0,0,1-1.82.58,1.81,1.81,0,0,1-1.93-2.06V11h3.87V7.55H82.61V3.76H78.1V7.55H75.7V11h2.4v6.39c0,3.7,2.14,5.58,5.8,5.58a6.52,6.52,0,0,0,3.68-1Z"/><path id="TM" class="cls-3" d="M176.33,19.38h.38V17.6h.7v-.33h-1.79v.33h.7v1.78Zm3.67,0v-2.1h-.32l-.82,1.4-.84-1.4h-.33v2.1h.37V18l.7,1.13h.17l.69-1.15v1.4Z"/><g id="Group_65" data-name="Group 65"><g id="Group_64" data-name="Group 64"><path id="Path_28" data-name="Path 28" class="cls-4" d="M2.4,1.31A10,10,0,0,0,4.11,4.92,4.23,4.23,0,0,0,6.46,6.15a3.52,3.52,0,0,1,.3.45A.79.79,0,0,1,6.87,7h.29a5,5,0,0,1,.12-.49,2.67,2.67,0,0,1,.2-.42,2,2,0,0,0,1.7,0c1-.43,1.18-1.21,2.15-1.66S12.5,4.3,12.5,4.3a1.9,1.9,0,0,0-1.17-.83,3.37,3.37,0,0,0-2.15.14A2.83,2.83,0,0,0,7.64,4.79a1.27,1.27,0,0,0-.22,1L7,6.7l-.4-.65A1.89,1.89,0,0,0,6.76,4.9a4.51,4.51,0,0,0-.69-1.43,4.84,4.84,0,0,0-1.49-1.2,10.72,10.72,0,0,0-1.33-.51A6.25,6.25,0,0,1,2.4,1.31Z"/><path id="Path_29" data-name="Path 29" class="cls-5" d="M6.53,5.85A11.8,11.8,0,0,0,5.06,3.64,10.47,10.47,0,0,0,3.13,2L4.5,3.35l2,2.5"/><path id="Path_30" data-name="Path 30" class="cls-5" d="M11.47,3.8a4.29,4.29,0,0,0-2,.51A8.49,8.49,0,0,0,7.5,6a2.25,2.25,0,0,1,.76-1.06,4.82,4.82,0,0,1,1.85-1.12A3,3,0,0,1,11.47,3.8Z"/></g></g></g></g></svg>