<svg id="Layer_1" data-name="Layer 1" xmlns="http://www.w3.org/2000/svg" viewBox="0 0 1999.08 255.2"><defs><style>.cls-1{fill:#4884c2;}.cls-1,.cls-2,.cls-3{fill-rule:evenodd;}.cls-2{fill:#f68b21;}.cls-4{fill:#0c9347;}.cls-5{fill:#03843a;}</style></defs><path id="_" data-name=" " class="cls-1" d="M1781.5,301.1a6.8,6.8,0,0,0,6.92-6.69v-.3a6.92,6.92,0,0,0-13.83,0,6.8,6.8,0,0,0,6.61,7Zm27.4,0c11.48,0,18.11-5.06,18.11-12.2,0-15.12-23.18-8.77-23.18-15.34,0-2,2.14-3.56,7.13-3.56a22,22,0,0,1,11.06,2.85l3.71-7.92c-3.64-2.14-9.49-3.35-14.77-3.35-11.19,0-17.76,5.14-17.76,12.41,0,15.34,23.19,8.92,23.19,15.2,0,2.14-1.93,3.5-7.07,3.5A26.44,26.44,0,0,1,1796,289l-3.7,8C1795.84,299.32,1802.4,301.1,1808.9,301.1Zm46.72-10.27a7.51,7.51,0,0,1-4.5,1.43c-3,0-4.77-1.79-4.77-5.07V271.57h9.55V263h-9.55v-9.35h-11.13V263h-5.92v8.56h5.92v15.76c0,9.13,5.28,13.77,14.34,13.77a15.87,15.87,0,0,0,9-2.42Zm26.32,10.27c12.2,0,21-8.2,21-19.76s-8.84-19.76-21-19.76-21.11,8.2-21.11,19.76S1869.74,301.1,1881.94,301.1Zm0-9.13c-5.56,0-9.84-4-9.84-10.63s4.28-10.63,9.84-10.63,9.77,4,9.77,10.63S1887.5,292,1881.94,292ZM1921,267.22v-5.07H1910.4v38.38h11.13V282.41c0-7.35,4.07-10.7,10.2-10.7.86,0,1.57.07,2.5.14V261.58c-5.92,0-10.49,1.93-13.2,5.64Zm57.07,14.26c0-12.34-8.7-19.9-20-19.9-11.7,0-20.48,8.28-20.48,19.76s8.63,19.76,21.9,19.76c6.92,0,12.27-2.14,15.84-6.2l-5.92-6.42a13,13,0,0,1-9.63,3.71c-5.85,0-9.92-2.93-11-7.7h29c.08-.94.22-2.15.22-3ZM1958.2,270a9.11,9.11,0,0,1,9.41,8h-18.9A9.08,9.08,0,0,1,1958.2,270Z" transform="translate(-26.84 -47.9)"/><path id="_food" data-name=" food" class="cls-2" d="M1093.17,124.3c0-17,8-25,22.79-25a35.1,35.1,0,0,1,20.22,6.1l13.16-36.27c-9.31-6.42-24.07-9.31-38.2-9.31-43,0-66.76,25.36-66.76,64.2v7.7h-26.65V170.2h26.65V300.53h50.07V170.2h43V131.68h-44.3Zm149.26,178.8c54.9,0,94.7-36.91,94.7-88.92s-39.8-88.91-94.7-88.91-95,36.91-95,88.91S1187.54,303.1,1242.43,303.1Zm0-41.09c-25,0-44.29-18-44.29-47.83s19.26-47.83,44.29-47.83,44,18,44,47.83-18.94,47.83-44,47.83Zm210.26,41.09c54.89,0,94.69-36.91,94.69-88.92s-39.8-88.91-94.69-88.91-95,36.91-95,88.91S1397.8,303.1,1452.69,303.1Zm0-41.09c-25,0-44.3-18-44.3-47.83s19.26-47.83,44.3-47.83,44,18,44,47.83-18.94,47.83-44,47.83ZM1706.6,62.35v83.78c-12.52-14.13-30.5-20.87-51.68-20.87-48.79,0-86.35,34.67-86.35,88.92s37.56,88.92,86.35,88.92c23.11,0,41.41-7.39,53.93-22.47v19.9h47.83V62.35Zm-43,199.66c-25,0-44.3-18-44.3-47.83s19.26-47.83,44.3-47.83c24.71,0,44,18,44,47.83s-19.26,47.83-44,47.83Z" transform="translate(-26.84 -47.9)"/><path id="direct" class="cls-1" d="M164.87,62.35v83.78c-12.52-14.13-30.5-20.87-51.68-20.87-48.79,0-86.35,34.67-86.35,88.92S64.4,303.1,113.19,303.1c23.11,0,41.41-7.38,53.93-22.47v19.9H215V62.35ZM121.86,262c-25,0-44.3-18-44.3-47.83s19.26-47.83,44.3-47.83c24.72,0,44,18,44,47.83S146.58,262,121.86,262ZM286.21,103.76c18.62,0,31.13-12.2,31.13-28.9,0-15.4-12.52-27-31.13-27s-31.14,12.2-31.14,27.93S267.59,103.76,286.21,103.76Zm-25,196.77h50.07V127.83H261.17v172.7ZM405.62,150.62V127.83H357.79v172.7h50.07V219c0-33.06,18.3-48.15,45.9-48.15,3.86,0,7.07.32,11.24.64V125.26C438.36,125.26,417.82,133.93,405.62,150.62Zm256.8,64.2c0-55.53-39.16-89.56-89.88-89.56-52.64,0-92.13,37.24-92.13,88.92,0,51.36,38.85,88.92,98.55,88.92,31.14,0,55.21-9.63,71.26-27.93l-26.64-28.89c-11.88,11.23-25,16.69-43.33,16.69-26.33,0-44.62-13.16-49.44-34.67H661.46c.32-4.17,1-9.63,1-13.48Zm-89.56-51.68c22.47,0,38.84,14.12,42.37,36H530.17c3.53-22.15,19.9-36,42.69-36Zm206.4,140c36.28,0,64.85-16.05,77.37-43.66l-38.85-21.18C808.48,255,794.67,262,778.94,262c-25.36,0-45.26-17.65-45.26-47.83s19.9-47.83,45.26-47.83c15.73,0,29.54,7.39,38.84,23.76l38.85-20.87c-12.52-28.25-41.09-44-77.37-44-56.17,0-96.3,36.91-96.3,88.91S723.09,303.1,779.26,303.1ZM986,256.88a33.71,33.71,0,0,1-20.22,6.42c-13.48,0-21.51-8-21.51-22.79V170.2h43V131.68h-43V89.63H894.18v42.05H867.53V170.2h26.65v70.94c0,41.09,23.75,62,64.52,62,15.41,0,30.5-3.54,40.76-10.92Z" transform="translate(-26.84 -47.9)"/><path id="TM" class="cls-3" d="M1985.06,263.13h4.33V243.47h7.73V239.8h-19.8v3.67h7.74v19.66Zm40.86,0,0-23.33h-3.57l-9.1,15.47L2004,239.8h-3.57v23.33h4.13V247.87l7.67,12.6h1.93l7.67-12.8,0,15.46Z" transform="translate(-26.84 -47.9)"/><g id="Group_65" data-name="Group 65"><g id="Group_64" data-name="Group 64"><path id="Path_28" data-name="Path 28" class="cls-4" d="M53.51,62.36s7.23,27.92,19,40.1A47.37,47.37,0,0,0,98.63,116.2a36,36,0,0,1,3.44,5,10.82,10.82,0,0,1,1.22,4h3.18q.54-2.73,1.34-5.39a22.59,22.59,0,0,1,2.34-4.66,21.27,21.27,0,0,0,18.89,0c10.86-4.84,13-13.5,23.81-18.41s13-1,13-1a21.49,21.49,0,0,0-13-9.32A36.6,36.6,0,0,0,129,88.15a30.8,30.8,0,0,0-17.14,13.14,13.69,13.69,0,0,0-2.46,11.07l-4.18,10.06-4.55-7.22a20.09,20.09,0,0,0,1.37-12.76,51.52,51.52,0,0,0-7.69-16A53.62,53.62,0,0,0,77.84,73.1a154.16,154.16,0,0,0-14.78-5.75A57.43,57.43,0,0,1,53.51,62.36Z" transform="translate(-26.84 -47.9)"/><path id="Path_29" data-name="Path 29" class="cls-5" d="M99.36,112.89A129.32,129.32,0,0,0,83,88.26,109.54,109.54,0,0,0,61.6,70.1l15.21,15L99.36,112.9" transform="translate(-26.84 -47.9)"/><path id="Path_30" data-name="Path 30" class="cls-5" d="M154.3,90.08a46.72,46.72,0,0,0-22.69,5.75,93.85,93.85,0,0,0-21.35,18.39,23.52,23.52,0,0,1,8.44-11.77,53.59,53.59,0,0,1,20.6-12.37A33,33,0,0,1,154.3,90.08Z" transform="translate(-26.84 -47.9)"/></g></g></svg>