<?xml version="1.0" encoding="utf-8"?>
<!-- Generator: Adobe Illustrator 25.2.1, SVG Export Plug-In . SVG Version: 6.00 Build 0)  -->
<svg version="1.1" id="Layer_1" xmlns="http://www.w3.org/2000/svg" xmlns:xlink="http://www.w3.org/1999/xlink" x="0px" y="0px"
	 viewBox="0 0 2049.1 805.9" style="enable-background:new 0 0 2049.1 805.9;" xml:space="preserve">
<style type="text/css">
	.st0{fill-rule:evenodd;clip-rule:evenodd;fill:#4884C2;}
	.st1{fill-rule:evenodd;clip-rule:evenodd;fill:#F68B21;}
	.st2{fill-rule:evenodd;clip-rule:evenodd;}
	.st3{fill:#0C9347;}
	.st4{fill:#03843A;}
	.st5{fill-rule:evenodd;clip-rule:evenodd;fill:#FFFFFF;}
	.st6{fill:#FFFFFF;}
</style>
<path id="_" class="st0" d="M1781.5,301.1c3.8,0.1,6.9-2.9,6.9-6.7c0-0.1,0-0.2,0-0.3c0-3.8-3.1-6.9-6.9-6.9s-6.9,3.1-6.9,6.9
	c-0.1,3.8,2.9,6.9,6.6,7C1781.3,301.1,1781.4,301.1,1781.5,301.1z M1808.9,301.1c11.5,0,18.1-5.1,18.1-12.2
	c0-15.1-23.2-8.8-23.2-15.3c0-2,2.1-3.6,7.1-3.6c3.9,0,7.7,0.9,11.1,2.9l3.7-7.9c-3.6-2.1-9.5-3.4-14.8-3.4
	c-11.2,0-17.8,5.1-17.8,12.4c0,15.3,23.2,8.9,23.2,15.2c0,2.1-1.9,3.5-7.1,3.5c-4.7,0-9.3-1.3-13.3-3.7l-3.7,8
	C1795.8,299.3,1802.4,301.1,1808.9,301.1z M1855.6,290.8c-1.3,0.9-2.9,1.4-4.5,1.4c-3,0-4.8-1.8-4.8-5.1v-15.6h9.6V263h-9.6v-9.3
	h-11.1v9.3h-5.9v8.6h5.9v15.8c0,9.1,5.3,13.8,14.3,13.8c3.2,0.1,6.3-0.7,9.1-2.4L1855.6,290.8z M1881.9,301.1c12.2,0,21-8.2,21-19.8
	s-8.8-19.8-21-19.8s-21.1,8.2-21.1,19.8S1869.7,301.1,1881.9,301.1z M1881.9,292c-5.6,0-9.8-4-9.8-10.6s4.3-10.6,9.8-10.6
	s9.8,4,9.8,10.6S1887.5,292,1881.9,292L1881.9,292z M1921,267.2v-5.1h-10.6v38.4h11.1v-18.1c0-7.3,4.1-10.7,10.2-10.7
	c0.9,0,1.6,0.1,2.5,0.1v-10.3C1928.3,261.6,1923.7,263.5,1921,267.2L1921,267.2z M1978.1,281.5c0-12.3-8.7-19.9-20-19.9
	c-11.7,0-20.5,8.3-20.5,19.8c0,11.4,8.6,19.8,21.9,19.8c6.9,0,12.3-2.1,15.8-6.2l-5.9-6.4c-2.6,2.5-6,3.9-9.6,3.7
	c-5.8,0-9.9-2.9-11-7.7h29C1978,283.6,1978.1,282.3,1978.1,281.5L1978.1,281.5z M1958.2,270c4.7-0.2,8.8,3.3,9.4,8h-18.9
	C1949.3,273.2,1953.4,269.8,1958.2,270z"/>
<path id="_food" class="st1" d="M1093.2,124.3c0-17,8-25,22.8-25c7.2-0.1,14.3,2,20.2,6.1l13.2-36.3c-9.3-6.4-24.1-9.3-38.2-9.3
	c-43,0-66.8,25.4-66.8,64.2v7.7h-26.7v38.5h26.7v130.3h50.1V170.2h43v-38.5h-44.3L1093.2,124.3L1093.2,124.3z M1242.4,303.1
	c54.9,0,94.7-36.9,94.7-88.9s-39.8-88.9-94.7-88.9s-95,36.9-95,88.9S1187.5,303.1,1242.4,303.1z M1242.4,262
	c-25,0-44.3-18-44.3-47.8s19.3-47.8,44.3-47.8s44,18,44,47.8S1267.5,262,1242.4,262L1242.4,262z M1452.7,303.1
	c54.9,0,94.7-36.9,94.7-88.9s-39.8-88.9-94.7-88.9s-95,36.9-95,88.9S1397.8,303.1,1452.7,303.1z M1452.7,262
	c-25,0-44.3-18-44.3-47.8s19.3-47.8,44.3-47.8s44,18,44,47.8S1477.7,262,1452.7,262L1452.7,262z M1706.6,62.3v83.8
	c-12.5-14.1-30.5-20.9-51.7-20.9c-48.8,0-86.3,34.7-86.3,88.9s37.6,88.9,86.3,88.9c23.1,0,41.4-7.4,53.9-22.5v19.9h47.8V62.3H1706.6
	z M1663.6,262c-25,0-44.3-18-44.3-47.8s19.3-47.8,44.3-47.8c24.7,0,44,18,44,47.8S1688.3,262,1663.6,262L1663.6,262z"/>
<path id="direct" class="st0" d="M164.9,62.3v83.8c-12.5-14.1-30.5-20.9-51.7-20.9c-48.8,0-86.3,34.7-86.3,88.9S64.5,303,113.3,303
	c23.1,0,41.4-7.4,53.9-22.5v19.9H215V62.3H164.9z M121.9,262c-25,0-44.3-18-44.3-47.8s19.3-47.8,44.3-47.8c24.7,0,44,18,44,47.8
	S146.6,262,121.9,262z M286.2,103.8c18.6,0,31.1-12.2,31.1-28.9c0-15.4-12.5-27-31.1-27s-31.1,12.2-31.1,27.9
	S267.6,103.8,286.2,103.8z M261.2,300.5h50.1V127.8h-50.1V300.5L261.2,300.5z M405.6,150.6v-22.8h-47.8v172.7h50.1V219
	c0-33.1,18.3-48.2,45.9-48.2c3.9,0,7.1,0.3,11.2,0.6v-46.2C438.4,125.3,417.8,133.9,405.6,150.6z M662.4,214.8
	c0-55.5-39.2-89.6-89.9-89.6c-52.6,0-92.1,37.2-92.1,88.9c0,51.4,38.8,88.9,98.5,88.9c31.1,0,55.2-9.6,71.3-27.9l-26.6-28.9
	c-11.9,11.2-25,16.7-43.3,16.7c-26.3,0-44.6-13.2-49.4-34.7h130.6C661.8,224.1,662.4,218.7,662.4,214.8L662.4,214.8z M572.9,163.1
	c22.5,0,38.8,14.1,42.4,36h-85.1C533.7,176.9,550.1,163.1,572.9,163.1L572.9,163.1z M779.3,303.1c36.3,0,64.8-16,77.4-43.7
	l-38.8-21.2c-9.3,16.7-23.1,23.8-38.8,23.8c-25.4,0-45.3-17.7-45.3-47.8s19.9-47.8,45.3-47.8c15.7,0,29.5,7.4,38.8,23.8l38.8-20.9
	c-12.5-28.2-41.1-44-77.4-44c-56.2,0-96.3,36.9-96.3,88.9S723.1,303.1,779.3,303.1z M986,256.9c-5.9,4.3-13,6.5-20.2,6.4
	c-13.5,0-21.5-8-21.5-22.8v-70.3h43v-38.5h-43v-42h-50.1v42.1h-26.6v38.5h26.6v70.9c0,41.1,23.8,62,64.5,62
	c15.4,0,30.5-3.5,40.8-10.9L986,256.9z"/>
<path id="TM" class="st2" d="M1985.1,263.1h4.3v-19.7h7.7v-3.7h-19.8v3.7h7.7L1985.1,263.1L1985.1,263.1z M2025.9,263.1v-23.3h-3.6
	l-9.1,15.5l-9.3-15.5h-3.6v23.3h4.1v-15.3l7.7,12.6h1.9l7.7-12.8v15.5L2025.9,263.1L2025.9,263.1z"/>
<g id="Group_65" transform="translate(0)">
	<g id="Group_64" transform="translate(0 0)">
		<path id="Path_28" class="st3" d="M53.5,62.4c0,0,7.2,27.9,19,40.1c7,7.2,16.2,12.1,26.1,13.7c1.3,1.6,2.4,3.2,3.4,5
			c0.7,1.3,1.1,2.6,1.2,4h3.2c0.4-1.8,0.8-3.6,1.3-5.4c0.6-1.6,1.4-3.2,2.3-4.7c6,2.9,12.9,2.9,18.9,0c10.9-4.8,13-13.5,23.8-18.4
			s13-1,13-1c-3-4.7-7.6-8-13-9.3c-7.9-2.1-16.3-1.5-23.8,1.6c-7.1,2.2-13.2,6.8-17.1,13.1c-2.4,3.2-3.3,7.2-2.5,11.1l-4.2,10.1
			l-4.5-7.2c1.8-4,2.3-8.5,1.4-12.8c-1.6-5.7-4.2-11.1-7.7-15.9c-4.5-5.4-10.1-10-16.5-13.3C73,70.9,68,69,63,67.4
			C59.7,66,56.5,64.3,53.5,62.4z"/>
		<path id="Path_29" class="st4" d="M99.4,112.9c-4.5-8.8-10-17.1-16.3-24.6c-6.3-6.9-13.5-13-21.4-18.2l15.2,15L99.4,112.9"/>
		<path id="Path_30" class="st4" d="M154.3,90.1c-7.9,0-15.7,1.9-22.7,5.7c-8,5-15.2,11.2-21.4,18.4c1.5-4.7,4.5-8.8,8.4-11.8
			c5.8-5.6,12.9-9.9,20.6-12.4C144.2,88.9,149.4,88.9,154.3,90.1z"/>
	</g>
</g>
<rect x="125.8" y="397.5" class="st1" width="891.2" height="322.2"/>
<path id="__1_" class="st5" d="M569.4,547.3c0.5,0,0.8-0.3,0.8-0.8l0,0c0-0.5-0.4-0.8-0.8-0.8c-0.5,0-0.8,0.4-0.8,0.8
	C568.6,547,568.9,547.3,569.4,547.3L569.4,547.3z M572.7,547.3c1.4,0,2.2-0.6,2.2-1.5c0-1.8-2.8-1.1-2.8-1.8c0-0.2,0.3-0.4,0.9-0.4
	c0.5,0,0.9,0.1,1.3,0.3l0.4-0.9c-0.4-0.3-1.1-0.4-1.8-0.4c-1.3,0-2.1,0.6-2.1,1.5c0,1.8,2.8,1.1,2.8,1.8c0,0.3-0.2,0.4-0.9,0.4
	c-0.6,0-1.1-0.2-1.6-0.4l-0.4,1C571.1,547.1,571.9,547.3,572.7,547.3z M578.2,546.1c-0.2,0.1-0.3,0.2-0.5,0.2
	c-0.4,0-0.6-0.2-0.6-0.6v-1.9h1.2v-1h-1.2v-1.1h-1.3v1.1h-0.7v1h0.7v1.9c0,1.1,0.6,1.7,1.7,1.7c0.4,0,0.8-0.1,1.1-0.3L578.2,546.1z
	 M581.4,547.3c1.5,0,2.5-1,2.5-2.4s-1.1-2.4-2.5-2.4s-2.5,1-2.5,2.4S579.9,547.3,581.4,547.3z M581.4,546.3c-0.7,0-1.2-0.5-1.2-1.3
	s0.5-1.3,1.2-1.3s1.2,0.5,1.2,1.3S582,546.3,581.4,546.3L581.4,546.3z M586.1,543.3v-0.6h-1.3v4.6h1.3v-2.2c0-0.9,0.5-1.3,1.2-1.3
	c0.1,0,0.2,0,0.3,0v-1.2C586.9,542.6,586.4,542.8,586.1,543.3L586.1,543.3z M592.8,545c0-1.5-1-2.4-2.4-2.4c-1.4,0-2.5,1-2.5,2.4
	s1,2.4,2.6,2.4c0.8,0,1.5-0.3,1.9-0.7l-0.7-0.8c-0.3,0.3-0.7,0.5-1.2,0.4c-0.7,0-1.2-0.3-1.3-0.9h3.5
	C592.8,545.2,592.8,545.1,592.8,545L592.8,545z M590.5,543.6c0.6,0,1.1,0.4,1.1,1h-2.3C589.5,544,590,543.6,590.5,543.6z"/>
<path id="_food_1_" class="st5" d="M487.2,526.2c0-2,1-3,2.7-3c0.9,0,1.7,0.2,2.4,0.7l1.6-4.4c-1.1-0.8-2.9-1.1-4.6-1.1
	c-5.2,0-7.9,3.1-7.9,7.6v0.9h-3.2v4.6h3.2v15.6h6v-15.6h5.2V527h-5.3L487.2,526.2L487.2,526.2z M505.1,547.6
	c6.6,0,11.3-4.4,11.3-10.6c0-6.2-4.8-10.6-11.3-10.6s-11.3,4.4-11.3,10.6C493.8,543.2,498.6,547.6,505.1,547.6z M505.1,542.6
	c-3,0-5.3-2.2-5.3-5.7c0-3.6,2.3-5.7,5.3-5.7s5.3,2.2,5.3,5.7C510.4,540.5,508.1,542.6,505.1,542.6L505.1,542.6z M530.2,547.6
	c6.6,0,11.3-4.4,11.3-10.6c0-6.2-4.8-10.6-11.3-10.6c-6.6,0-11.3,4.4-11.3,10.6C518.8,543.2,523.6,547.6,530.2,547.6z M530.2,542.6
	c-3,0-5.3-2.2-5.3-5.7c0-3.6,2.3-5.7,5.3-5.7c3,0,5.3,2.2,5.3,5.7C535.4,540.5,533.1,542.6,530.2,542.6L530.2,542.6z M560.5,518.9
	v10c-1.5-1.7-3.7-2.5-6.2-2.5c-5.9,0-10.3,4.2-10.3,10.6s4.5,10.6,10.3,10.6c2.8,0,5-0.9,6.5-2.7v2.4h5.7V519L560.5,518.9
	L560.5,518.9z M555.4,542.6c-3,0-5.3-2.2-5.3-5.7c0-3.6,2.3-5.7,5.3-5.7c3,0,5.3,2.2,5.3,5.7C560.6,540.5,558.3,542.6,555.4,542.6
	L555.4,542.6z"/>
<path id="direct_1_" class="st5" d="M375.3,518.9v10c-1.5-1.7-3.7-2.5-6.3-2.5c-5.9,0-10.4,4.2-10.4,10.6s4.6,10.6,10.4,10.6
	c2.8,0,5-0.9,6.6-2.7v2.4h5.8V519L375.3,518.9L375.3,518.9z M370.1,542.6c-3,0-5.4-2.2-5.4-5.7c0-3.6,2.3-5.7,5.4-5.7
	c3,0,5.4,2.2,5.4,5.7C375.4,540.5,373.1,542.6,370.1,542.6z M389.9,523.8c2.3,0,3.8-1.5,3.8-3.5c0-1.8-1.5-3.2-3.8-3.2
	s-3.8,1.5-3.8,3.4C386.2,522.4,387.7,523.8,389.9,523.8z M386.9,547.3h6.1v-20.6h-6.1V547.3L386.9,547.3z M404.4,529.4v-2.7h-5.9
	v20.6h6.1v-9.7c0-4,2.2-5.8,5.6-5.8c0.5,0,0.9,0,1.4,0.1v-5.5C408.3,526.3,405.8,527.4,404.4,529.4z M435.4,537.1
	c0-6.7-4.8-10.7-10.8-10.7c-6.4,0-11.1,4.5-11.1,10.6s4.7,10.6,11.9,10.6c3.8,0,6.7-1.2,8.6-3.4l-3.2-3.5c-1.4,1.3-3,2-5.3,2
	c-3.2,0-5.4-1.6-6-4.2h15.7C435.3,538.2,435.4,537.5,435.4,537.1L435.4,537.1z M424.6,530.9c2.7,0,4.7,1.7,5.2,4.3h-10.3
	C419.8,532.5,421.8,530.9,424.6,530.9L424.6,530.9z M449.5,547.6c4.4,0,7.8-1.9,9.3-5.2l-4.7-2.5c-1.1,2-2.8,2.9-4.7,2.9
	c-3.1,0-5.5-2.1-5.5-5.7c0-3.6,2.4-5.7,5.5-5.7c1.9,0,3.6,0.9,4.7,2.9l4.7-2.5c-1.5-3.4-5-5.3-9.3-5.3c-6.8,0-11.6,4.4-11.6,10.6
	C437.9,543.2,442.7,547.6,449.5,547.6z M474.4,542c-0.7,0.5-1.6,0.8-2.5,0.8c-1.6,0-2.6-1-2.6-2.7v-8.3h5.2v-4.6h-5.2v-5h-6.1v5.1
	h-3.2v4.6h3.2v8.4c0,4.9,2.9,7.4,7.7,7.4c1.9,0,3.7-0.4,5-1.3L474.4,542z"/>
<path id="TM_1_" class="st5" d="M593.7,542.8h0.5v-2.4h0.9V540h-2.4v0.4h0.9L593.7,542.8L593.7,542.8z M598.6,542.8V540h-0.4
	l-1.1,1.9L596,540h-0.4v2.8h0.5v-1.9l0.9,1.5h0.2l0.9-1.5v1.9H598.6L598.6,542.8z"/>
<g>
	<path class="st6" d="M375.1,521.8c-0.9-0.3-2-0.2-2.9,0.2c-0.9,0.3-1.6,0.8-2.1,1.6c-0.3,0.4-0.4,0.9-0.3,1.3l-0.5,1.2l-0.5-0.9
		c0.2-0.5,0.3-1,0.2-1.5c-0.2-0.7-0.5-1.3-0.9-1.9c-0.5-0.6-1.2-1.2-2-1.6c-0.6-0.3-1.2-0.5-1.8-0.7c-0.4-0.2-0.8-0.4-1.1-0.6
		c0,0,0.9,3.4,2.3,4.8c0.8,0.9,1.9,1.5,3.1,1.6c0.2,0.2,0.3,0.4,0.4,0.6c0.1,0.2,0.1,0.3,0.1,0.5h0.4c0-0.2,0.1-0.4,0.2-0.6
		c0.1-0.2,0.2-0.4,0.3-0.6c0.7,0.3,1.5,0.3,2.3,0c1.3-0.6,1.6-1.6,2.9-2.2c1.1-0.5,1.5-0.2,1.5-0.1
		C376.3,522.3,375.7,521.9,375.1,521.8z M366.1,521.6l-1.8-1.8c0.9,0.6,1.8,1.4,2.6,2.2c0.8,0.9,1.4,1.9,2,3L366.1,521.6z
		 M372.5,522.9c-1,0.6-1.8,1.3-2.6,2.2c0.2-0.6,0.5-1.1,1-1.4c0.7-0.7,1.5-1.2,2.5-1.5c0.6-0.1,1.2-0.1,1.8,0
		C374.3,522.2,373.4,522.4,372.5,522.9z"/>
	<path class="st6" d="M376.6,522.9L376.6,522.9L376.6,522.9z"/>
</g>
<path id="__2_" class="st0" d="M1260.2,485.5c0.3,0,0.6-0.3,0.6-0.6l0,0c0-0.3-0.3-0.6-0.6-0.6c-0.3,0-0.6,0.3-0.6,0.6
	C1259.5,485.3,1259.8,485.5,1260.2,485.5L1260.2,485.5z M1262.6,485.5c1,0,1.6-0.5,1.6-1.1c0-1.4-2.1-0.8-2.1-1.4
	c0-0.2,0.2-0.3,0.6-0.3s0.7,0.1,1,0.3l0.3-0.7c-0.3-0.2-0.9-0.3-1.3-0.3c-1,0-1.6,0.5-1.6,1.1c0,1.4,2.1,0.8,2.1,1.4
	c0,0.2-0.2,0.3-0.6,0.3s-0.8-0.1-1.2-0.3l-0.3,0.7C1261.5,485.4,1262.1,485.5,1262.6,485.5z M1266.8,484.6c-0.1,0.1-0.3,0.1-0.4,0.1
	c-0.3,0-0.4-0.2-0.4-0.5v-1.4h0.9V482h-0.9v-0.8h-1v0.8h-0.5v0.8h0.5v1.4c0,0.8,0.5,1.2,1.3,1.2c0.3,0,0.6-0.1,0.8-0.2L1266.8,484.6
	z M1269.2,485.5c1.1,0,1.9-0.7,1.9-1.8c0-1-0.8-1.8-1.9-1.8s-1.9,0.7-1.9,1.8C1267.3,484.8,1268.1,485.5,1269.2,485.5z
	 M1269.2,484.7c-0.5,0-0.9-0.4-0.9-1s0.4-1,0.9-1s0.9,0.4,0.9,1S1269.7,484.7,1269.2,484.7L1269.2,484.7z M1272.7,482.5V482h-1v3.5
	h1v-1.6c0-0.7,0.4-1,0.9-1c0.1,0,0.1,0,0.2,0V482C1273.4,482,1273,482.2,1272.7,482.5L1272.7,482.5z M1277.9,483.8
	c0-1.1-0.8-1.8-1.8-1.8c-1.1,0-1.8,0.7-1.8,1.8c0,1,0.8,1.8,2,1.8c0.6,0,1.1-0.2,1.4-0.6l-0.5-0.6c-0.2,0.2-0.5,0.4-0.9,0.3
	c-0.5,0-0.9-0.3-1-0.7h2.6C1277.9,484,1277.9,483.9,1277.9,483.8L1277.9,483.8z M1276.1,482.7c0.4,0,0.8,0.3,0.8,0.7h-1.7
	C1275.3,483,1275.7,482.7,1276.1,482.7z"/>
<path id="_food_2_" class="st1" d="M1198.2,469.6c0-1.5,0.7-2.3,2.1-2.3c0.6,0,1.3,0.2,1.8,0.5l1.2-3.3c-0.8-0.6-2.2-0.8-3.4-0.8
	c-3.9,0-6,2.3-6,5.8v0.7h-2.4v3.5h2.4v11.7h4.5v-11.7h3.9v-3.5h-4L1198.2,469.6L1198.2,469.6z M1211.6,485.7c4.9,0,8.5-3.3,8.5-8
	s-3.6-8-8.5-8s-8.6,3.3-8.6,8S1206.7,485.7,1211.6,485.7z M1211.6,482c-2.3,0-4-1.6-4-4.3c0-2.7,1.7-4.3,4-4.3s4,1.6,4,4.3
	S1213.9,482,1211.6,482L1211.6,482z M1230.6,485.7c4.9,0,8.5-3.3,8.5-8s-3.6-8-8.5-8s-8.6,3.3-8.6,8S1225.6,485.7,1230.6,485.7z
	 M1230.6,482c-2.3,0-4-1.6-4-4.3c0-2.7,1.7-4.3,4-4.3s4,1.6,4,4.3C1234.5,480.4,1232.8,482,1230.6,482L1230.6,482z M1253.4,464v7.5
	c-1.1-1.3-2.7-1.9-4.7-1.9c-4.4,0-7.8,3.1-7.8,8s3.4,8,7.8,8c2.1,0,3.7-0.7,4.9-2v1.8h4.3V464H1253.4z M1249.6,482
	c-2.3,0-4-1.6-4-4.3c0-2.7,1.7-4.3,4-4.3c2.2,0,4,1.6,4,4.3C1253.5,480.4,1251.8,482,1249.6,482L1249.6,482z"/>
<path id="direct_2_" class="st0" d="M1114.6,464v7.5c-1.1-1.3-2.7-1.9-4.7-1.9c-4.4,0-7.8,3.1-7.8,8s3.4,8,7.8,8
	c2.1,0,3.7-0.7,4.9-2v1.8h4.3V464H1114.6z M1110.7,482c-2.3,0-4-1.6-4-4.3c0-2.7,1.7-4.3,4-4.3c2.2,0,4,1.6,4,4.3
	S1113,482,1110.7,482z M1125.5,467.8c1.7,0,2.8-1.1,2.8-2.6c0-1.4-1.1-2.4-2.8-2.4s-2.8,1.1-2.8,2.5S1123.9,467.8,1125.5,467.8z
	 M1123.3,485.5h4.5v-15.6h-4.5V485.5L1123.3,485.5z M1136.3,472v-2.1h-4.3v15.6h4.5v-7.3c0-3,1.6-4.3,4.1-4.3c0.4,0,0.6,0,1,0.1
	v-4.2C1139.2,469.7,1137.4,470.5,1136.3,472z M1159.4,477.8c0-5-3.5-8.1-8.1-8.1c-4.7,0-8.3,3.3-8.3,8c0,4.6,3.5,8,8.9,8
	c2.8,0,5-0.9,6.4-2.5l-2.4-2.6c-1.1,1-2.3,1.5-3.9,1.5c-2.4,0-4-1.2-4.4-3.1h11.8C1159.3,478.6,1159.4,478.1,1159.4,477.8
	L1159.4,477.8z M1151.3,473.1c2,0,3.5,1.3,3.8,3.2h-7.7C1147.8,474.4,1149.3,473.1,1151.3,473.1L1151.3,473.1z M1169.9,485.7
	c3.3,0,5.8-1.4,7-3.9l-3.5-1.9c-0.8,1.5-2.1,2.1-3.5,2.1c-2.3,0-4.1-1.6-4.1-4.3s1.8-4.3,4.1-4.3c1.4,0,2.7,0.7,3.5,2.1l3.5-1.9
	c-1.1-2.5-3.7-4-7-4c-5.1,0-8.7,3.3-8.7,8S1164.9,485.7,1169.9,485.7z M1188.5,481.6c-0.5,0.4-1.2,0.6-1.8,0.6
	c-1.2,0-1.9-0.7-1.9-2.1v-6.3h3.9v-3.5h-3.9v-3.8h-4.5v3.8h-2.4v3.5h2.4v6.4c0,3.7,2.1,5.6,5.8,5.6c1.4,0,2.7-0.3,3.7-1
	L1188.5,481.6z"/>
<path id="TM_2_" class="st2" d="M1278.5,482.1h0.4v-1.8h0.7V480h-1.8v0.3h0.7L1278.5,482.1L1278.5,482.1z M1282.2,482.1V480h-0.3
	l-0.8,1.4l-0.8-1.4h-0.3v2.1h0.4v-1.4l0.7,1.1h0.2l0.7-1.2v1.4h0.2V482.1z"/>
<g id="Group_65_1_" transform="translate(0)">
	<g id="Group_64_1_" transform="translate(0 0)">
		<path id="Path_28_1_" class="st3" d="M1104.6,464c0,0,0.6,2.5,1.7,3.6c0.6,0.6,1.5,1.1,2.4,1.2c0.1,0.1,0.2,0.3,0.3,0.5
			c0.1,0.1,0.1,0.2,0.1,0.4h0.3c0-0.2,0.1-0.3,0.1-0.5c0.1-0.1,0.1-0.3,0.2-0.4c0.5,0.3,1.2,0.3,1.7,0c1-0.4,1.2-1.2,2.1-1.7
			s1.2-0.1,1.2-0.1c-0.3-0.4-0.7-0.7-1.2-0.8c-0.7-0.2-1.5-0.1-2.1,0.1s-1.2,0.6-1.5,1.2c-0.2,0.3-0.3,0.6-0.2,1l-0.4,0.9l-0.4-0.6
			c0.2-0.4,0.2-0.8,0.1-1.2c-0.1-0.5-0.4-1-0.7-1.4c-0.4-0.5-0.9-0.9-1.5-1.2c-0.4-0.2-0.9-0.4-1.3-0.5
			C1105.1,464.4,1104.8,464.2,1104.6,464z"/>
		<path id="Path_29_1_" class="st4" d="M1108.7,468.6c-0.4-0.8-0.9-1.5-1.5-2.2c-0.6-0.6-1.2-1.2-1.9-1.6l1.4,1.4L1108.7,468.6"/>
		<path id="Path_30_1_" class="st4" d="M1113.7,466.5c-0.7,0-1.4,0.2-2,0.5c-0.7,0.5-1.4,1-1.9,1.7c0.1-0.4,0.4-0.8,0.8-1.1
			c0.5-0.5,1.2-0.9,1.9-1.1C1112.7,466.4,1113.2,466.4,1113.7,466.5z"/>
	</g>
</g>
</svg>
