<svg xmlns="http://www.w3.org/2000/svg" width="243.968" height="31.154" viewBox="0 0 243.968 31.154">
  <g id="DFS_logo-white" data-name="DFS logo-white" transform="translate(0 0.04)">
    <path id="_" data-name=" " d="M1775.431,259.441a.83.83,0,0,0,.845-.816v-.037a.844.844,0,0,0-1.688,0,.83.83,0,0,0,.807.854Zm3.344,0c1.4,0,2.21-.618,2.21-1.489,0-1.845-2.829-1.07-2.829-1.872,0-.244.261-.434.87-.434a2.685,2.685,0,0,1,1.35.348l.453-.967a3.853,3.853,0,0,0-1.8-.409c-1.366,0-2.167.627-2.167,1.515,0,1.872,2.83,1.089,2.83,1.855,0,.261-.236.427-.863.427a3.226,3.226,0,0,1-1.625-.45l-.452.976A4.043,4.043,0,0,0,1778.775,259.441Zm5.7-1.253a.917.917,0,0,1-.549.175.546.546,0,0,1-.582-.619v-1.906h1.165v-1.046h-1.165V253.65h-1.358v1.141h-.723v1.045h.723v1.923a1.544,1.544,0,0,0,1.75,1.68,1.937,1.937,0,0,0,1.1-.3Zm3.212,1.253a2.417,2.417,0,1,0-2.576-2.411A2.4,2.4,0,0,0,1787.688,259.441Zm0-1.114a1.3,1.3,0,1,1,1.192-1.3,1.189,1.189,0,0,1-1.192,1.3Zm4.767-3.02v-.619h-1.294v4.684h1.358V257.16a1.151,1.151,0,0,1,1.245-1.306c.1,0,.192.009.305.017v-1.253a1.891,1.891,0,0,0-1.611.688Zm6.965,1.74a2.319,2.319,0,0,0-2.441-2.429,2.385,2.385,0,0,0-2.5,2.412,2.427,2.427,0,0,0,2.673,2.411,2.457,2.457,0,0,0,1.933-.757l-.723-.784a1.586,1.586,0,0,1-1.175.453,1.253,1.253,0,0,1-1.343-.94h3.539c.01-.115.027-.262.027-.366Zm-2.425-1.4a1.112,1.112,0,0,1,1.148.976h-2.307A1.108,1.108,0,0,1,1797,255.645Z" transform="translate(-1561.293 -228.575)" fill="#fff" fill-rule="evenodd"/>
    <path id="_food" data-name=" food" d="M1026.937,67.689c0-2.075.976-3.051,2.781-3.051a4.284,4.284,0,0,1,2.468.744l1.606-4.426a8.662,8.662,0,0,0-4.662-1.136c-5.248,0-8.147,3.095-8.147,7.835v.94h-3.252v4.7h3.252V89.2h6.111V73.291h5.248v-4.7h-5.406Zm18.216,21.821c6.7,0,11.557-4.5,11.557-10.852s-4.857-10.851-11.557-10.851-11.594,4.5-11.594,10.851S1038.454,89.51,1045.153,89.51Zm0-5.015c-3.051,0-5.405-2.2-5.405-5.837s2.35-5.837,5.405-5.837,5.37,2.2,5.37,5.837S1048.211,84.5,1045.153,84.5Zm25.66,5.015c6.7,0,11.556-4.5,11.556-10.852s-4.857-10.851-11.556-10.851-11.594,4.5-11.594,10.851S1064.114,89.51,1070.813,89.51Zm0-5.015c-3.051,0-5.406-2.2-5.406-5.837s2.35-5.837,5.406-5.837,5.37,2.2,5.37,5.837S1073.871,84.5,1070.813,84.5ZM1101.8,60.129V70.353a8.1,8.1,0,0,0-6.307-2.547c-5.954,0-10.538,4.231-10.538,10.852s4.584,10.852,10.538,10.852a8.111,8.111,0,0,0,6.582-2.742V89.2h5.837V60.129ZM1096.552,84.5c-3.051,0-5.406-2.2-5.406-5.837s2.351-5.837,5.406-5.837c3.016,0,5.37,2.2,5.37,5.837S1099.571,84.5,1096.552,84.5Z" transform="translate(-896.802 -58.4)" fill="#fff" fill-rule="evenodd"/>
    <path id="direct" d="M43.685,49.628V59.853a8.1,8.1,0,0,0-6.307-2.547c-5.954,0-10.538,4.231-10.538,10.852s4.584,10.852,10.538,10.852a8.107,8.107,0,0,0,6.582-2.742V78.7H49.8V49.628ZM38.436,73.994c-3.051,0-5.406-2.2-5.406-5.837s2.35-5.837,5.406-5.837c3.017,0,5.37,2.2,5.37,5.837S41.453,73.994,38.436,73.994ZM58.493,54.682a3.514,3.514,0,0,0,3.8-3.527c0-1.879-1.528-3.3-3.8-3.3a3.431,3.431,0,1,0,0,6.822ZM55.442,78.7h6.111V57.62H55.438V78.7ZM73.066,60.4V57.62H67.229V78.7H73.34v-9.95c0-4.035,2.233-5.876,5.6-5.876.471,0,.863.039,1.372.078V57.306C77.062,57.306,74.555,58.364,73.066,60.4Zm31.34,7.835c0-6.777-4.779-10.93-10.969-10.93-6.424,0-11.244,4.545-11.244,10.852,0,6.268,4.741,10.852,12.027,10.852,3.8,0,6.738-1.175,8.7-3.409l-3.251-3.526a7.14,7.14,0,0,1-5.288,2.037c-3.213,0-5.445-1.606-6.034-4.231h15.945c.039-.509.122-1.175.122-1.645Zm-10.93-6.307a5.008,5.008,0,0,1,5.171,4.393H88.266A4.994,4.994,0,0,1,93.476,61.929Zm25.189,17.086c4.428,0,7.914-1.959,9.442-5.328L123.366,71.1a5.175,5.175,0,0,1-4.74,2.892c-3.095,0-5.524-2.154-5.524-5.837s2.429-5.837,5.524-5.837a5.255,5.255,0,0,1,4.74,2.9l4.741-2.547c-1.528-3.448-5.015-5.37-9.442-5.37-6.855,0-11.752,4.5-11.752,10.851s4.9,10.857,11.752,10.857ZM143.9,73.369a4.114,4.114,0,0,1-2.468.783,2.457,2.457,0,0,1-2.625-2.781V62.79h5.248v-4.7H138.8V52.958H132.69v5.132h-3.252v4.7h3.252v8.658c0,5.015,2.9,7.566,7.874,7.566a8.73,8.73,0,0,0,4.974-1.333Z" transform="translate(-26.84 -47.9)" fill="#fff" fill-rule="evenodd"/>
    <path id="TM" d="M1978.265,242.647h.529v-2.4h.943V239.8h-2.416v.448h.945Zm4.987,0V239.8h-.436l-1.11,1.888-1.129-1.888h-.436v2.847h.5v-1.862l.936,1.538h.235l.936-1.562v1.887Z" transform="translate(-1739.284 -216.416)" fill="#fff" fill-rule="evenodd"/>
    <g id="Group_65" data-name="Group 65" transform="translate(3.255 1.73)">
      <g id="Group_64" data-name="Group 64">
        <path id="Path_28" data-name="Path 28" d="M53.51,62.36s.882,3.407,2.319,4.894a5.781,5.781,0,0,0,3.188,1.677,4.394,4.394,0,0,1,.42.61,1.32,1.32,0,0,1,.149.488h.388q.066-.333.164-.658a2.757,2.757,0,0,1,.286-.569,2.6,2.6,0,0,0,2.305,0c1.325-.591,1.587-1.648,2.906-2.247s1.587-.122,1.587-.122A2.623,2.623,0,0,0,65.633,65.3a4.467,4.467,0,0,0-2.911.211,3.759,3.759,0,0,0-2.092,1.6,1.671,1.671,0,0,0-.3,1.351l-.51,1.228-.555-.881a2.452,2.452,0,0,0,.167-1.557,6.288,6.288,0,0,0-.938-1.953,6.544,6.544,0,0,0-2.015-1.628,18.815,18.815,0,0,0-1.8-.7A7.009,7.009,0,0,1,53.51,62.36Z" transform="translate(-53.51 -62.36)" fill="#fff"/>
        <path id="Path_29" data-name="Path 29" d="M66.208,75.322a15.782,15.782,0,0,0-2-3.006A13.368,13.368,0,0,0,61.6,70.1l1.856,1.831,2.752,3.393" transform="translate(-60.613 -69.155)" fill="#03843a"/>
        <path id="Path_30" data-name="Path 30" d="M115.635,89.322a5.7,5.7,0,0,0-2.769.7,11.453,11.453,0,0,0-2.606,2.244,2.87,2.87,0,0,1,1.03-1.436,6.54,6.54,0,0,1,2.514-1.51,4.027,4.027,0,0,1,1.831,0Z" transform="translate(-103.334 -85.939)" fill="#03843a"/>
      </g>
    </g>
  </g>
</svg>
